<?xml version="1.0" encoding="UTF-8" standalone="no"?>
<!-- Created with Inkscape (http://www.inkscape.org/) -->

<svg
   xmlns:osb="http://www.openswatchbook.org/uri/2009/osb"
   xmlns:dc="http://purl.org/dc/elements/1.1/"
   xmlns:cc="http://creativecommons.org/ns#"
   xmlns:rdf="http://www.w3.org/1999/02/22-rdf-syntax-ns#"
   xmlns:svg="http://www.w3.org/2000/svg"
   xmlns="http://www.w3.org/2000/svg"
   xmlns:sodipodi="http://sodipodi.sourceforge.net/DTD/sodipodi-0.dtd"
   xmlns:inkscape="http://www.inkscape.org/namespaces/inkscape"
   width="225"
   height="225"
   viewBox="0 0 59.531249 59.531251"
   version="1.1"
   id="svg8"
   inkscape:version="0.92.4 (5da689c313, 2019-01-14)"
   sodipodi:docname="lezard2.svg">
  <defs
     id="defs2">
    <linearGradient
       id="linearGradient6072"
       osb:paint="solid">
      <stop
         style="stop-color:#000000;stop-opacity:1;"
         offset="0"
         id="stop6070" />
    </linearGradient>
  </defs>
  <sodipodi:namedview
     id="base"
     pagecolor="#ffffff"
     bordercolor="#666666"
     borderopacity="1.0"
     inkscape:pageopacity="0.0"
     inkscape:pageshadow="2"
     inkscape:zoom="2.8266667"
     inkscape:cx="68.340294"
     inkscape:cy="94.772734"
     inkscape:document-units="mm"
     inkscape:current-layer="layer2"
     showgrid="false"
     fit-margin-top="0"
     fit-margin-left="0"
     fit-margin-right="0"
     fit-margin-bottom="0"
     inkscape:showpageshadow="false"
     inkscape:window-width="1920"
     inkscape:window-height="1017"
     inkscape:window-x="-8"
     inkscape:window-y="-8"
     inkscape:window-maximized="1"
     units="px" />
  <metadata
     id="metadata5">
    <rdf:RDF>
      <cc:Work
         rdf:about="">
        <dc:format>image/svg+xml</dc:format>
        <dc:type
           rdf:resource="http://purl.org/dc/dcmitype/StillImage" />
        <dc:title></dc:title>
      </cc:Work>
    </rdf:RDF>
  </metadata>
  <g
     inkscape:groupmode="layer"
     id="layer2"
     inkscape:label="blanc"
     style="display:inline"
     transform="translate(-4.4671601,-2.7417055)">
    <path
       style="fill:#acadaf;fill-opacity:1;stroke:#000000;stroke-width:0.094;stroke-miterlimit:4;stroke-dasharray:none;stroke-opacity:1"
       d="M 18.270013,60.778632 C 17.518368,60.518369 17.035044,60.160608 16.741489,59.647205 16.626542,59.446175 16.337834,58.691998 16.099914,57.971258 15.502146,56.160412 15.049535,55.247491 14.403626,54.549833 13.905372,54.01166 13.734586,53.907464 11.853149,52.993792 9.6080394,51.90351 9.2308695,51.685096 8.1518381,50.850423 6.6537054,49.691556 5.6060316,48.394394 5.185732,47.177983 5.0004856,46.641852 4.9697275,46.369916 4.971973,45.288106 c 0.00235,-1.135504 0.028986,-1.339564 0.2626101,-2.012455 0.4250235,-1.224166 0.9499698,-2.05749 1.8876266,-2.996504 0.6363642,-0.637286 1.0255869,-0.938572 1.5912441,-1.231731 1.1139974,-0.577342 1.7019662,-0.725638 2.8548792,-0.720047 2.148916,0.01042 3.04804,0.63465 5.578825,3.873211 1.542983,1.974506 2.363667,2.83681 2.967603,3.118107 1.744797,0.812673 3.502613,0.471448 4.927236,-0.956469 0.988833,-0.991121 1.737031,-2.238708 2.026938,-3.379832 0.227113,-0.893948 0.136353,-2.924919 -0.181955,-4.071713 -0.375361,-1.352343 -0.77403,-2.367155 -1.554939,-3.958098 -2.075938,-4.229298 -4.720796,-7.976232 -5.630204,-7.976232 -0.370914,0 -0.802198,0.410578 -1.497221,1.42534 -0.711554,1.038897 -1.351667,1.72031 -1.696913,1.806397 -0.594394,0.148215 -1.177728,-0.522208 -2.280577,-2.621047 -0.908919,-1.729772 -1.091488,-1.908282 -2.291308,-2.240378 -0.585996,-0.162197 -0.806486,-0.354711 -0.891162,-0.77809 -0.04709,-0.235455 -0.01981,-0.309815 0.1463,-0.398712 0.294745,-0.157743 0.87814,-0.03275 1.114178,0.23872 0.108892,0.125238 0.244418,0.227705 0.301167,0.227705 0.213908,0 0.60988,-0.308121 0.880885,-0.685451 0.264866,-0.368782 0.280808,-0.441461 0.280808,-1.280203 0,-0.839177 -0.01997,-0.930093 -0.35486,-1.615336 -0.208838,-0.427323 -0.577074,-0.966556 -0.894882,-1.310436 -0.965808,-1.045044 -1.121283,-1.383056 -0.778744,-1.693049 0.193482,-0.1751 0.594987,-0.202312 0.863638,-0.05853 0.220054,0.117769 0.462503,0.566549 0.463743,0.858401 0.0024,0.562851 0.890722,1.900377 1.186717,1.786793 0.123102,-0.04724 0.139332,-0.181218 0.09861,-0.814042 -0.05091,-0.791084 -0.233112,-1.37528 -0.600648,-1.925857 -0.498982,-0.74749 -0.140261,-1.706159 0.512175,-1.368771 0.355906,0.184047 0.51227,0.54008 0.384421,0.875314 -0.154854,0.406043 0.07197,2.221602 0.43248,3.46172 0.122447,0.421205 0.176783,0.493361 0.371522,0.493361 0.129716,0 0.269891,-0.07809 0.324994,-0.181052 0.138933,-0.259599 0.119445,-0.9317 -0.0425,-1.465518 -0.214605,-0.707426 -0.186441,-1.127691 0.0876,-1.307252 0.196933,-0.129036 0.265781,-0.132519 0.491413,-0.02486 0.220662,0.105287 0.267398,0.192081 0.293851,0.545713 0.0401,0.536097 -0.07758,1.066108 -0.686034,3.089802 -0.271145,0.901814 -0.564623,1.961627 -0.652172,2.355143 -0.14775,0.664108 -0.148307,0.758083 -0.0078,1.30882 0.176854,0.69298 0.57657,1.248557 0.898288,1.248557 0.298755,0 0.864414,-0.85515 2.008517,-3.036434 1.6265,-3.100992 2.06841,-3.548258 3.409903,-3.451223 1.136036,0.08217 2.035847,0.782317 3.537365,2.752429 0.468912,0.615249 0.938115,1.196054 1.042675,1.290679 0.184929,0.167359 0.196978,0.166643 0.442222,-0.02627 0.138664,-0.109073 0.789557,-0.697063 1.44643,-1.306644 1.48948,-1.382245 2.224378,-1.934966 3.367722,-2.532882 1.562875,-0.817309 3.347117,-1.290414 5.66035,-1.500885 0.617779,-0.05621 2.471111,-0.140452 4.118515,-0.187207 1.647407,-0.04676 3.068995,-0.113543 3.159088,-0.148417 0.434224,-0.168081 0.01193,-0.908477 -1.572945,-2.757852 -1.569225,-1.831105 -2.102538,-2.777092 -2.099577,-3.724214 0.0029,-0.9084464 0.192487,-1.0395724 2.469657,-1.7076056 4.877912,-1.4309881 6.98364,-2.2674083 7.887081,-3.1328437 0.214985,-0.2059397 0.417206,-0.5007877 0.449385,-0.6552181 0.112582,-0.5403175 0.271195,-0.7469492 0.597648,-0.7785825 0.370801,-0.03593 0.575985,0.1137965 0.575985,0.420307 0,0.3768971 -0.253384,0.749866 -0.842523,1.2401534 -0.307711,0.2560791 -0.516112,0.4923983 -0.463111,0.5251538 0.102476,0.063334 1.780691,-0.096299 2.55384,-0.2429235 0.778886,-0.1477124 0.972019,-0.1142942 1.35064,0.2337033 l 0.349636,0.321356 -0.322572,0.3338621 c -0.177411,0.1836243 -0.359082,0.3338621 -0.403706,0.3338621 -0.04463,0 -0.362554,-0.1357239 -0.706507,-0.3016083 -0.522552,-0.2520231 -0.733176,-0.3014673 -1.281136,-0.3007503 -0.838618,0.00108 -1.390131,0.2424988 -1.434412,0.6278533 -0.02532,0.2203222 0.02021,0.2804112 0.301654,0.3979997 0.38472,0.1607466 1.316284,0.2961701 2.59764,0.3776245 1.011361,0.064291 1.081188,0.1214699 0.909163,0.744488 -0.17006,0.6159144 -0.636399,0.6714914 -1.241319,0.1479364 -0.532053,-0.4604868 -0.968248,-0.6120037 -1.753626,-0.6091387 -0.937559,0.00342 -1.393823,0.392689 -1.17982,1.0065807 0.126738,0.363556 0.533771,0.588407 1.202013,0.66401 0.424508,0.04803 0.630521,0.1264584 0.852024,0.3243734 0.51366,0.458954 0.337728,1.133761 -0.295163,1.132132 -0.32688,-8.47e-4 -0.690962,-0.25823 -1.032825,-0.730155 -0.598109,-0.8256694 -2.034961,-1.6092934 -2.950795,-1.6092934 -0.737486,0 -4.35252,1.4033684 -4.35252,1.6896624 0,0.03777 0.636011,0.736395 1.413359,1.552507 1.63553,1.717091 2.333017,2.701195 2.733011,3.856085 0.248798,0.718347 0.286155,0.969145 0.326467,2.191803 l 0.04552,1.380638 h 0.63024 c 0.831567,0 1.927791,-0.197468 3.87582,-0.698169 2.14721,-0.551898 2.795662,-0.653304 4.173543,-0.652664 1.33885,6.61e-4 2.095741,0.182108 3.22929,0.774313 1.233739,0.644548 2.365944,2.027017 2.537209,3.098035 0.188446,1.178483 -1.774484,3.13094 -4.101563,4.07968 -1.252678,0.510712 -1.874833,0.64321 -3.022172,0.643615 -1.39433,5.29e-4 -2.130107,-0.217246 -4.165317,-1.23263 -1.603422,-0.799962 -1.652293,-0.817236 -2.312154,-0.817236 -0.656,0 -0.68404,0.0097 -1.043876,0.361071 -0.203375,0.198588 -0.590658,0.767225 -0.860637,1.263634 -1.155491,2.124628 -1.358619,2.472359 -1.606312,2.74979 -0.309599,0.346774 -0.315346,0.402873 -0.0807,0.787689 0.348575,0.571661 1.754023,1.344948 3.632205,1.998461 1.31749,0.458425 1.051946,0.493736 2.8955,-0.385045 0.785706,-0.374531 1.274527,-0.674735 1.576432,-0.968156 0.240678,-0.233913 0.515231,-0.425296 0.610119,-0.425296 0.528687,0 0.903867,0.460623 0.738745,0.906991 -0.117009,0.316307 -0.43094,0.427205 -1.168902,0.412917 -0.50876,-0.0098 -0.715796,0.02413 -0.827458,0.135784 -0.202203,0.202205 -0.18864,0.277929 0.08888,0.496229 0.366226,0.288073 1.043734,0.388144 2.627834,0.388144 0.822166,0 1.530948,0.04205 1.633439,0.09689 0.198702,0.106344 0.245782,0.543283 0.08992,0.834517 -0.172815,0.322914 -0.525412,0.313376 -1.297173,-0.03508 -0.762476,-0.344268 -2.21131,-0.655349 -2.59902,-0.558041 -0.132466,0.03325 -0.22479,0.125153 -0.22479,0.223779 0,0.344527 1.229331,1.22564 2.039638,1.461895 0.625571,0.182393 0.979046,0.477602 0.979046,0.817663 0,0.247004 -0.338111,0.715274 -0.516459,0.715274 -0.04731,0 -0.429588,-0.320286 -0.849508,-0.711747 -1.23653,-1.152727 -2.049036,-1.507927 -2.445988,-1.069298 -0.130194,0.143862 -0.156948,0.289938 -0.121219,0.6618 0.05557,0.57835 0.409295,1.122648 1.010473,1.554895 0.704239,0.506344 0.840044,0.661826 0.840044,0.96175 0,0.32004 -0.208717,0.474652 -0.640744,0.474652 -0.358484,0 -0.596276,-0.281766 -1.230207,-1.457706 -0.891529,-1.653778 -1.300702,-1.954395 -4.576754,-3.362503 -3.54566,-1.523992 -5.548424,-2.625087 -5.855772,-3.219434 -0.178848,-0.345852 -0.180356,-0.805402 -0.0053,-1.601425 0.07361,-0.334629 0.135308,-0.74531 0.137118,-0.912624 0.003,-0.281424 -0.01947,-0.304208 -0.300633,-0.304208 -0.33714,0 -4.08278,0.481965 -5.546241,0.713656 -2.284254,0.361635 -3.162427,0.963062 -4.020449,2.75346 -0.346089,0.722165 -0.410134,1.09751 -0.21975,1.287894 0.177252,0.177252 0.928672,0.13212 1.994919,-0.119819 1.432348,-0.338442 2.558245,-0.45412 3.789722,-0.389364 1.567963,0.08245 2.567548,0.389091 3.088886,0.947568 0.200821,0.21513 0.232386,0.332571 0.222581,0.828133 -0.0249,1.258914 -1.447581,4.155355 -2.881263,5.866 -1.07529,1.28302 -1.069826,2.217418 0.01868,3.193026 0.527992,0.473234 1.782342,1.208429 2.980222,1.746761 0.719981,0.323564 1.089064,0.432636 2.162233,0.638998 0.400124,0.07694 0.389178,0.75941 -0.01643,1.025178 -0.284649,0.18651 -0.553797,0.07923 -1.166545,-0.464979 -0.564155,-0.501049 -0.938231,-0.710033 -1.270947,-0.710033 -0.290558,0 -0.384072,0.19081 -0.232405,0.474205 0.316688,0.591735 1.583015,1.678654 1.955736,1.678654 0.258205,0 0.661824,0.399831 0.661824,0.655614 0,0.294751 -0.25414,0.727347 -0.466987,0.794901 -0.324276,0.10292 -0.540197,-0.03855 -0.827431,-0.542118 -0.381016,-0.667986 -0.850265,-1.190429 -1.524344,-1.697143 -0.655209,-0.49253 -0.978361,-0.547019 -1.114865,-0.187987 -0.208793,0.549172 -0.05127,1.327388 0.378024,1.867591 0.475358,0.598159 0.324583,1.262001 -0.286631,1.262001 -0.464193,0 -0.551807,-0.263215 -0.642155,-1.929188 -0.08767,-1.616549 -0.224509,-2.144712 -0.640439,-2.471886 -0.32412,-0.254952 -0.814187,-0.243895 -1.000834,0.02257 -0.2006,0.286396 -0.182428,0.686647 0.05328,1.173557 0.228664,0.472355 0.163523,0.745689 -0.24085,1.010645 -0.322805,0.21151 -0.668335,0.109289 -0.896723,-0.265287 -0.240813,-0.394954 -0.235069,-0.446516 0.09616,-0.863312 0.361734,-0.455181 0.361924,-0.774083 0.0013,-2.163037 -0.525377,-2.023438 -0.594505,-3.856337 -0.202607,-5.371971 0.09983,-0.386111 0.159454,-0.738425 0.132482,-0.782918 -0.105222,-0.173593 -0.863007,0.0425 -1.765384,0.503418 -1.105485,0.564666 -1.786142,1.054886 -2.019483,1.454465 -0.09178,0.157154 -0.274219,0.825272 -0.405429,1.484701 -0.504375,2.534859 -1.824035,5.228886 -3.184961,6.501969 -0.952821,0.891315 -2.359928,1.637017 -3.939476,2.087737 -1.018952,0.290756 -2.180283,0.274643 -3.515407,-0.04878 -3.514472,-0.851339 -5.340674,-2.334017 -7.401216,-6.008971 -1.121509,-2.000199 -1.979199,-2.516759 -3.796271,-2.286378 -2.1641184,0.274384 -3.5755617,1.905945 -3.5755617,4.133175 0,1.513126 0.5433631,2.779631 1.6807264,3.917543 0.8084338,0.808826 1.5320963,1.302536 3.4585963,2.359594 2.934794,1.610304 3.317633,2.05514 4.128051,4.796544 0.764329,2.5855 0.975891,3.174574 1.254056,3.491798 0.554654,0.632542 1.47386,0.897253 2.808546,0.808792 0.996468,-0.06604 0.95951,0.02156 -0.160243,0.379875 -0.897602,0.287219 -1.33044,0.287012 -2.162334,-0.0011 z"
       id="path3806"
       inkscape:connector-curvature="0" />
  </g>
</svg>
